<svg width="18" height="18" viewBox="0 0 18 18" fill="none" xmlns="http://www.w3.org/2000/svg">
<g id="dribbble-ball-mark">
<path id="Shape" fill-rule="evenodd" clip-rule="evenodd" d="M8.87298 0.690918C4.16541 0.690918 0.345703 4.51063 0.345703 9.2182C0.345703 13.9258 4.16541 17.7455 8.87298 17.7455C13.5713 17.7455 17.4003 13.9258 17.4003 9.2182C17.4003 4.51063 13.5713 0.690918 8.87298 0.690918ZM14.505 4.62167C15.5224 5.86099 16.1328 7.44253 16.1513 9.15353C15.9108 9.10728 13.5062 8.61711 11.083 8.92231C11.0275 8.80209 10.9813 8.67259 10.9258 8.54311C10.7778 8.19167 10.6113 7.83097 10.4449 7.48877C13.127 6.39743 14.3478 4.82515 14.505 4.62167ZM8.87242 1.94883C10.7222 1.94883 12.4147 2.64248 13.7002 3.78007C13.5707 3.96504 12.4701 5.43559 9.88054 6.40669C8.68745 4.21475 7.36488 2.42051 7.16142 2.14305C7.70708 2.01357 8.28051 1.94883 8.87242 1.94883ZM5.77435 2.63305C5.96857 2.89201 7.26339 4.69551 8.47496 6.84119C5.07145 7.74756 2.06564 7.72907 1.74193 7.72907C2.2136 5.47239 3.73964 3.59491 5.77435 2.63305ZM1.58474 9.22757C1.58474 9.15359 1.58474 9.0796 1.58474 9.0056C1.89919 9.01485 5.43219 9.0611 9.06691 7.96976C9.27963 8.3767 9.47385 8.79288 9.65882 9.20908C9.56634 9.23683 9.4646 9.26458 9.37212 9.29231C5.61717 10.5039 3.61945 13.8149 3.45298 14.0924C2.29688 12.8068 1.58474 11.0958 1.58474 9.22757ZM8.87251 16.5062C7.18926 16.5062 5.63547 15.9327 4.4054 14.9709C4.53489 14.7027 6.01468 11.8541 10.1211 10.4205C10.1396 10.4113 10.1488 10.4113 10.1673 10.402C11.1939 13.0564 11.6101 15.2853 11.7211 15.9235C10.8425 16.3027 9.88062 16.5062 8.87251 16.5062ZM12.9331 15.2576C12.8591 14.8136 12.4707 12.6864 11.5181 10.0691C13.8025 9.70838 15.8002 10.3003 16.0499 10.3835C15.7355 12.409 14.5701 14.157 12.9331 15.2576Z" fill="#AF48FF"/>
</g>
</svg>
