<svg width="27" height="17" viewBox="0 0 27 17" fill="none" xmlns="http://www.w3.org/2000/svg">
<g id="Logo Be">
<path id="Fill 46" fill-rule="evenodd" clip-rule="evenodd" d="M7.21787 13.8421C7.55896 13.8421 7.88726 13.8112 8.19424 13.743C8.50762 13.6748 8.78369 13.5661 9.01712 13.4062C9.24949 13.2527 9.44562 13.0416 9.58525 12.7741C9.72595 12.5087 9.79311 12.1633 9.79311 11.7466C9.79311 10.9301 9.56287 10.3492 9.10559 9.9974C8.64832 9.64992 8.03755 9.47724 7.28609 9.47724H3.49251V13.8421H7.21787ZM7.02281 7.09485C7.63997 7.09485 8.15374 6.94882 8.55878 6.65036C8.96063 6.35724 9.15569 5.87331 9.15569 5.20925C9.15569 4.84045 9.0896 4.5356 8.96063 4.29896C8.82526 4.06233 8.64832 3.87793 8.42448 3.74789C8.20064 3.61252 7.94695 3.51978 7.65489 3.46969C7.36709 3.41319 7.06544 3.39187 6.75633 3.39187H3.49251V7.09485H7.02281ZM7.47309 0.690918C8.23202 0.690918 8.9174 0.755938 9.54309 0.892375C10.1645 1.02348 10.6953 1.24413 11.142 1.54578C11.5843 1.8485 11.9297 2.24928 12.178 2.75452C12.4189 3.25337 12.5394 3.87799 12.5394 4.61453C12.5394 5.4129 12.3592 6.08016 11.9968 6.61311C11.6323 7.145 11.0961 7.57989 10.3798 7.91885C11.3551 8.19919 12.0768 8.69377 12.5575 9.39514C13.0382 10.1018 13.2738 10.9482 13.2738 11.9405C13.2738 12.7432 13.1192 13.436 12.8112 14.0169C12.5021 14.6074 12.0789 15.0839 11.5587 15.4527C11.0332 15.8247 10.431 16.0976 9.75521 16.2745C9.08688 16.4515 8.39404 16.5421 7.68308 16.5421H0V0.690918H7.47309Z" fill="#AF48FF"/>
<path id="Fill 47" fill-rule="evenodd" clip-rule="evenodd" d="M22.4774 7.75897C22.1033 7.3454 21.4691 7.12049 20.6942 7.12049C20.191 7.12049 19.7743 7.2047 19.4417 7.37844C19.1145 7.54899 18.848 7.76004 18.6423 8.01053C18.4387 8.26422 18.3001 8.53176 18.2181 8.81849C18.1392 9.09882 18.0891 9.35144 18.0763 9.57528H23.2054C23.1287 8.77159 22.8548 8.17681 22.4774 7.75897ZM18.8557 13.7898C19.329 14.2503 20.0111 14.4827 20.8959 14.4827C21.5301 14.4827 22.079 14.3217 22.5405 14.0009C22.9978 13.6811 23.275 13.3389 23.3837 12.984H26.1604C25.7116 14.3654 25.0369 15.3514 24.1117 15.9451C23.2014 16.542 22.0865 16.8372 20.7893 16.8372C19.8864 16.8372 19.0721 16.6923 18.3409 16.4034C17.6128 16.1114 17.001 15.7021 16.4883 15.1691C15.9884 14.634 15.6004 14.0009 15.3222 13.2569C15.0493 12.5182 14.9108 11.6985 14.9108 10.8117C14.9108 9.95253 15.0536 9.15204 15.335 8.41016C15.6217 7.66722 16.0182 7.02448 16.5352 6.48726C17.0596 5.94684 17.6747 5.51941 18.3963 5.2071C19.1168 4.89692 19.9099 4.74023 20.7893 4.74023C21.7592 4.74023 22.6109 4.92783 23.34 5.30836C24.0659 5.68356 24.6617 6.192 25.1307 6.82835C25.5976 7.4647 25.9312 8.19165 26.138 9.00707C26.3458 9.82036 26.4183 10.671 26.3576 11.5621H18.0765C18.0765 12.4691 18.3814 13.3272 18.8557 13.7898Z" fill="#AF48FF"/>
<path id="Fill 52" fill-rule="evenodd" clip-rule="evenodd" d="M17.4314 3.15402H23.8546V1.59033H17.4314V3.15402Z" fill="#AF48FF"/>
</g>
</svg>
